# xmcd
#
# Track frame offsets:
#	150
#	15076
#	28445
#	46584
#	60528
#	75496
#	91338
#	100143
#	115847
#	132762
#	148444
#	161498
#	176744
#	192070
#	204095
#	219131
#	236904
#	247318
#
# Disc length: 3424 seconds
#
# Revision: 0
# Processed by: cddbd v1.5.2PL0 Copyright (c) Steve Scherf et al.
# Submitted via: EasyCDDAExtractor 12.0.1.1
#
DISCID=ed0d5e12
DTITLE=Various Artist - Dansefestivalen I Sel 2008 [cd1]
DYEAR=2008
DGENRE=Danseband
TTITLE0=Ole Ivars - Amanda Ifrån Trättelanda
TTITLE1=Anne Nørdsti - Harry
TTITLE2=Streaplers - Till Min Kära
TTITLE3=Scandinavia - Balladen Om Lena Lind
TTITLE4=Det Betales - Hybel'N Min Er Fin
TTITLE5=Sogns - Ungkar and Spellemann
TTITLE6=Lasse Johansens Orkester - Vid Din Sida
TTITLE7=Furulunds - Vi Må Ta Farvel Nå
TTITLE8=Ørnulf and Sluskan - Langs Hver en Vei
TTITLE9=Pk and Dansefolket - Gryande Sol
TTITLE10=Nyanse - Amors Piler
TTITLE11=Fernando - Hver en Dans
TTITLE12=Contrazt - En Venn Som Stiller Opp
TTITLE13=Holmsve - Mot Nye Mål
TTITLE14=Rikingan - Dagens Mann
TTITLE15=Casanova - Det Er Lov Å Drømme
TTITLE16=Something New - Det Er Deg Jeg Vil Ha
TTITLE17=Bjørns Orkester - Kom Deg Hjem
EXTD=
EXTT0=
EXTT1=
EXTT2=
EXTT3=
EXTT4=
EXTT5=
EXTT6=
EXTT7=
EXTT8=
EXTT9=
EXTT10=
EXTT11=
EXTT12=
EXTT13=
EXTT14=
EXTT15=
EXTT16=
EXTT17=
PLAYORDER=
